<?xml version="1.0" encoding="UTF-8"?>
<svg id="Layer_2" data-name="Layer 2" xmlns="http://www.w3.org/2000/svg" viewBox="0 0 2580 557.53">
  <defs>
    <style>
      .cls-1 {
        fill: #342f71;
      }

      .cls-2 {
        fill: #260360;
      }

      .cls-3 {
        fill: #52379f;
      }

      .cls-4 {
        fill: #2c225a;
      }
    </style>
  </defs>
  <g id="Layer_1-2" data-name="Layer 1">
    <g>
      <g>
        <path class="cls-4" d="M258.92,62.84c8.12-5.79,14.9,9.13,6.94,13.88-3.25,1.85-7.64.46-9.25-3.14-1.72-3.53-1.06-8.3,2.21-10.66l.1-.07ZM262.8,72.2c2.07.02,2.69-4.41.44-4.67-2.73-.34-3.36,4.39-.54,4.67h.1Z"/>
        <g>
          <path class="cls-1" d="M270.49,167.16c.39.51,1.32.84,2,1.4s1.44.98,2.27,1.12c1.34.23,2.36.54,4.22,0,9.09-2.62,7.13-18.41-2.8-17.12-5.88.76-9.56,9.51-5.68,14.59ZM275.45,159.11c2.97-3.23,6.34,3.06,2.53,4.85-2.76,1.3-4.15-3.08-2.53-4.85Z"/>
          <path class="cls-2" d="M217.86,207.28c9.37-14.92,19.1-2.74,24.35-14.63,2.16-4.73,4.48-10.4,7.28-14.59,1.33-1.95,2.32-3.54,3.57-5.58,1.39-2.55,4.46-5.43,1.12-7.37-15.68-7.92-24.81-25.86-28.01-43.99-5.33-19.78,4.59-39.36,17.51-53.09.98-1.42,1.66-3.03,2.36-4.63,1.65-3.86,4.31-6.98,7.37-9.71,5.03-3.7.94-6.72.32-11.4.26-5.52,4.97-3.23,1.31-11.41-1.33-4.13-4.57-3.71-7.14-6.03-2.1-2.22-4.2-6.6-3.06-9.74.76-1.86,2.47-2.83,4.05-3.75,3.88-1.87,23.75-14.29,26.61-10.71,1.93,1.86,3.32,4.87,3.59,7.71.14,2.29-.7,4.14-.45,6.31.4,2.59,1.39,5.37,2.87,7.43,1.36,1.87,4.08,1.21,5.69,2.31,1.48,1.06,1.98,2.89,2.95,4.68,1.28,2.57,2.71,5.26,3.97,7.85,6.24,12.96,9.94,27.32,16.29,40.3,6.46,12.18,1.27,8,3.51,15.32,1.18,3.22,2.89,6.55.4,9.11-.57.7-1.2,1.52-1.54,2.38-.57,1.34-.53,2.86-.55,4.31.17,5.18-4.57,7.08-8.16,9.01-3.28,1.66-6.29,1.9-8.84-.3-1.25-1.14-2.5-2.39-4.1-2.86-1.52-.52-3.19-.44-4.33-1.46-1.75-1.47-2.23-4.4-3.73-6.02-2.67-2.4-5.18-.37-6.85-5.05-.93-2.24-1.88-4.57-2.6-6.9-.68-1.91-1.12-4.35-2.86-5.41-1.3-.75-3.15-.33-4.58.21-12.39,4.7-16.02,20.19-12.62,33,2.56,10.5,11.11,19.72,21.56,18.65,17.63-4.6,34.12-17.14,51.53-23.75,4.32-1.75,8.65-4.44,10.63,2.26,1.04,3.82,5.29,10.58,1.35,13.23-9.28,5.25-20.44,10.21-30.13,14.98-3.1,1.94-6.7,4.41-9.84,6.46-4.25,2.29-3.17,4.37-3.75,8.93-1.05,4.88,1.36,9.33,3.55,13.43,2.25,4.33,3.23,8.91,5.32,13.25,1.29,2.44,1.35,5.49,3.22,7.5,1.59,1.57,4.28,1.63,6.39,1.2,16.45-2.55,33.91.76,33.75,22.26-.1,2.81-1.64,4.02-4.06,4.03-16.6.95-33.93.49-50.53.34-19.73.13-39.89.76-59.68-.11-4.37-.17-9.33.36-12.58.34-2.84-.01-4.94-.41-5.97-1.93-.99-1.06-.81-4.29-.11-6.78.85-3.25,2.11-6.73,3.61-9.48l.05-.09ZM272.25,8.77c-1.45-2.47-8.29,2.4-11.63,4.32-2.54,1.75-4.7,2.28-7.14,3.82-1.48,1.01-1.29,2.83.75,2.47,1.85-.53,3.58-2.18,5.37-3.04,3.28-1.92,12.75-4.31,12.66-7.52v-.05ZM275.02,21.34c-.69-1.55-1.2-3.8-2.25-4.15-.68-.25-1.41,0-2.08.26-1.37.56-2.86,1.29-4.08,2.04-5.79,3.66-9.58,3.15-5.25,12.15,2.14,5.52,4.56,1.93,7.86.24,5.13-2.88,9.29-3.02,5.85-10.44l-.05-.11ZM300.32,111.91c.71-.11,1.46-.87,2.41-1.43.86-.52,1.84-.88,2.61-1.32,1.05-.57,1.57-1.96.93-3.04-.8-1.33-3.03-.14-5.15.96-1.32.74-2.81,1.13-3.11,2.03-.36,1.26,1.09,2.93,2.22,2.8h.08ZM290.43,106.32c.7.27,1.47-.17,2.14-.53,4.03-2.26,8.85-4.92,13.09-7.04,1.2-.62,2.73-1.35,2.91-2.94.13-1.3-.39-3.11-1.35-3.81-.91-.67-2.06.03-2.96.54-4.43,2.57-8.86,5.21-13.49,7.28-.96.47-2.33.87-2.46,2.16-.11,1.37.89,3.74,2.05,4.32l.07.03ZM280.6,67.47c.24,4.62.3,8.73-2.25,12.72-.88,1.78-2.57,3.54-2.07,5.66.88,2.77,2.6,6.28,3.71,9.02.24.53.49,1.05.79,1.47,1.53,2.62,7.32-1.81,9.15-2.9,1.54-1.04,3.12-1.79,4.81-2.48,2.92-1.21,5.81-2.81,8.78-4,2.87-1.06,3.37-2.79,2.17-5.77-5.71-16.06-13.67-31.14-19.7-47.05-.43-1.14-1.09-2.6-2.07-2.96-1.04-.42-2.36.23-3.37.76-5.61,2.95-11.84,6.24-17.32,8.98-.91.48-1.88,1.15-2.28,2.11-.84,2.02.95,5.29,2.36,6.45,1.17.97,2.59,1.02,3.95,1.42,2.74.91,6.44,3.17,8.71,5.59,1.53,1.78,2.62,4.4,3.56,6.65.55,1.36.95,2.75,1.06,4.22v.1ZM259.9,81.73c16.95,4.72,21.24-23.6,3.78-25.22-8.75-.94-14.67,10.62-11.48,18.82,1.09,3.16,4.25,5.68,7.58,6.38l.12.03ZM255.05,139.6c-13.86-15.03-12.07-36.3-1.38-50.56,2.23-3.21-1.02-4.78-3.15-6.93-1.34-1.28-2.38-2.93-3.22-4.61-.98-1.98-2.3-1.95-3.85-.39-22.11,21.56-13.48,68.49,12.69,82.72,2.01,1.07,3.09.12,3.67-1.91.8-3.02,2.45-5.63,4.13-8.19,1.51-2.38.01-3.71-1.99-4.63-2.51-1.17-4.86-3.15-6.81-5.4l-.09-.1ZM281.73,147.8c-6.92-2.42-15.05,2.85-16.33,10.65-.66,5.09.05,10.7,4.27,13.74,4.89,3.71,12.09,2.99,16.41-1.55,5.63-6.43,4.33-20.24-4.25-22.8l-.1-.03ZM295.69,147.25c11.32-5.58,23.13-10.65,34.32-16.69,1.34-.81,2.92-1.47,3.99-2.62.61-.69.46-1.34-.13-2.38-.71-1.35-1.93-2.46-3.46-2.24-13.33,4.72-25.72,13.24-38.86,18.44-1.1.45-2.46,1.23-2.6,2.51-.16,1.34.71,2.7,1.63,3.54,1.51,1.45,3.37.31,5.02-.51l.09-.04ZM299.75,198.02c.11-.95-.34-2.19-.57-3.19-1.38-5.5-4.51-12.42-6.44-17.85-.4-1.01-.91-2.28-2.01-2.24-1.16.12-2.06,1.03-3.01,1.77-4.02,3.5-8.16,5-12.2,4.65-4.16-.34-8.24-2.64-11.92-6.51-1.41-1.5-2.73-2.94-4.31-.71-1.17,1.56-2.37,3.37-3.45,5.02-1.35,2.09-1.79,3.72-2.92,5.92-2.11,4.67-9.8,13.29-3.43,14.12,15.55-.86,31.25.48,46.76-.1,1.11-.09,3.17.29,3.49-.83v-.05ZM221.51,217.31c.65.81,2.44.87,3.62.87,37.34.5,75.39-.35,112.83-.15,3.03-.06,2.39-2.89,1.51-4.95-1.01-2.54-2.39-4.65-4.28-5.92-2.42-1.63-5.16-1.96-8.13-2.04-4.33,0-8.49.16-12.74.23-27.35.97-55.96-1.83-83.11-.1-1.48.17-2.9.56-4.22,1.43-2.35,1.27-7.28,7.95-5.54,10.58l.04.05Z"/>
        </g>
      </g>
      <path class="cls-4" d="M2.16,543.99c2.15,4.4,4.69,6.9,9.15,9.01"/>
      <path class="cls-4" d="M348.27,242.64h-138.44v263.84h138.44V242.64ZM187.11,320.41H48.67v186.07h138.44v-186.07ZM509.43,366.93h-138.44v139.55h138.44v-139.55ZM2562,523.46H14l-.13,1.13v14.31l.13,1.13h2548M531,508.14l2042-1c3.86,0,7,3.13,7,6.99v36.59c0,3.54-2.87,6.4-6.41,6.4l-2042.59-3.99H0v-40.73c0-8.27,5-6.27,23-5.82v-194.55c0-1.61,5.61-6.91,8.21-6.91h152.16l1.62-1.09v-71.44c0-2.08,5.46-4.26,7.58-5.47h168.85c2.28.91,7.58,3.64,7.58,5.47v118.44l1.62,1.09h152.16c2.6,0,8.21,5.29,8.21,6.89v147.67M869.76,557.53l1.62-1.09"/>
      <path class="cls-3" d="M292.63,349.91c8.34.14,20.56-2.25,23.51,7.84,2.94,10.08-4.53,15.22-13.73,15.86-12.25.85-33.81,1.11-45.86,0-17.6-1.63-16.28-21.84-3.31-23.63,4.49-.62,9.64.28,14.22-.07v-55.2c-11.45,15.57-32.69,1.52-20.05-14.67,3.82-4.9,17.32-18.06,22.33-21.95,5.83-4.53,12.5-7.49,18.92-1.71,1.89,1.7,3.97,8.47,3.97,10.73v82.8Z"/>
      <path class="cls-3" d="M104.99,409.67v23.66h38.33c.63,0,6.26,2.98,7.05,3.76,6.69,6.52,3.38,17.97-5.54,20.26-7.44,1.92-42.11,1.71-50.71.76-6.58-.73-12.36-3.83-13.18-10.68-1.3-10.82-1.29-41.04,0-51.87.38-3.21,4.36-9.55,7.46-9.55h40.62v-24.78h-40.62c-1.3,0-5.91-4.34-6.57-5.92-2.84-6.86.23-15.81,7.95-17.5,6.86-1.5,44.46-1.2,52.41-.26,7.7.91,11.17,5.77,11.99,12.98,1.17,10.26,1.16,35.93,0,46.19-.29,2.55-1.32,6.41-2.89,8.42-.84,1.08-6.11,4.53-6.84,4.53h-39.47Z"/>
      <path class="cls-3" d="M415.33,400.42c-9.82-2.08-11.86-20.75,1.41-23.4,7.12-1.42,45.81-1.33,53.44-.19,5.69.86,9.26,5.05,9.83,10.6-2.26,31.59,2.91,66.96.03,98.09-.71,7.7-5.73,10.99-13.21,11.78-9.1.96-41.68,1.26-49.85-.49-9.4-2.01-13.46-13.66-6.4-20.54.8-.78,6.43-3.76,7.05-3.76h38.33v-23.66h-39.47c-4.09,0-9.57-7.64-9.57-11.83,0-3.44,5-11.83,8.42-11.83h40.62v-24.78c-11.52-1.68-30,2.25-40.62,0Z"/>
      <path class="cls-3" d="M173.33,61.88c6.94-1.28,24.93,5.02,24.97,12.11.09,15.95-29.76,3.67-31.05-2.18-.91-4.11.69-8.95,6.08-9.94Z"/>
      <path class="cls-3" d="M375.98,61.9c12.36-1.93,16.84,8.94,7.28,14.6-6.24,3.69-23.61,9.9-26.23.49-2.41-8.68,10.14-13.72,18.95-15.09Z"/>
      <path class="cls-3" d="M379.85,123.05c9.89-1.79,34.35-1.32,25,11.99-4.14,5.9-28.44,5.55-30.87-1.18-1.66-4.62-.39-9.68,5.87-10.81Z"/>
      <path class="cls-3" d="M155.27,123.05c6.32-1.21,24.02-1.87,25.87,4.83,3.18,11.54-12.08,12.14-22.16,10.94-12.43-1.48-12.91-14-3.71-15.76Z"/>
      <path class="cls-3" d="M186.25,178.81c8.21-1.35,14.6,4.96,11.24,11.58-1.82,3.59-17.09,8.93-21.85,8.67-9.86-.55-11.79-10.82-3.7-14.92,1.49-.75,13.02-5.11,14.31-5.32Z"/>
      <path class="cls-3" d="M364.22,178.79c3.66-.62,18.78,4.54,21.25,6.76,4.98,4.49,3.17,12.46-4.7,13.39-6.03.71-22.78-4.97-24-10.18-1.06-4.51,1.83-9.02,7.46-9.97Z"/>
      <g>
        <path class="cls-3" d="M862,417.58c-2.7,17.8,8.25,64.53-13.34,72.96-14,5.47-27.45.44-32.86-12.4,3.12-49.06-5.8-105.28-.45-153.5,7.24-65.22,89.35-104.56,154.22-74.74.68.31,11,6.17,12.17,6.88,72.27,43.97,36.35,154.49,44.21,221.36-6.56,18.33-36.42,19.6-43.97,1.42v-63.99s-119.99,2.01-119.99,2.01ZM979.77,373.6v-48.98c0-8.36-14.28-26.73-22.36-31.86-35.77-22.71-86.37-6.82-94.88,32.33-.69,3.17-2.75,17.24-2.75,19.52v28.99h119.99Z"/>
        <path class="cls-3" d="M1421.97,345.61c2.16-1.93,2.03-2,2.34-4.79,3.11-27.62-3.57-59.1,1.09-87.08,8.46-16.8,33.58-16.7,42.23-.2l.94,222.98c-7.03,12.46-18.85,22-34.46,13.09-2.11-1.21-9.93-9.58-9.93-11.04v-85.97l-3.33-3h-114.44v88.97c0,1.82-6.72,8.34-9.02,9.88-16.5,10.99-33.4,2.92-37.11-14.35,4.46-66.97-7.75-143.7-.65-209.54,2.84-26.31,31.01-31.36,45.63-8.87l1.14,89.94h115.55Z"/>
        <path class="cls-3" d="M690.9,415.59c-24.85,1.45-55.3-2.78-79-.05-1.77.2-3.33.09-3.22,2.05-1.7,18.79,2.31,40.58,0,58.98-3.09,24.59-36.85,26.7-44.44,1l-2.22-125.95c.05-1.31-.25-2.87,0-4,1.05-.22,2.06-1.08,2.22-2,.34-1.95-.44-4.15.6-6.43,9.57-20.96,43.85-7.07,43.85,3.43v30.99h83.33c3.35,0,26.13-9.69,28.8-12.07,9.28-8.3,13.43-25.41,12.27-36.89-1.99-19.54-18.73-38.94-41.1-40.98-35.05-3.19-75.01,2.66-110.61-.45-22.72-7.79-23.39-34.05-.36-41.46,45.07,4.48,113.49-10.63,152.77,10.3,79.02,42.09,50.75,158.06-42.89,163.54Z"/>
        <path class="cls-3" d="M1157.54,283.63c-1.72.15-4.63-.81-4.47,1.02l2.25,190.9c-4.19,14.04-9.97,13.88-23.4,19.98-5.27-7.3-17.7-5.87-20.57-17.4l1.21-191.59-2.79-2.91h-60c-3.48,0-10.75-5.26-13.19-8.12-14.19-16.61-.89-32.16,19.75-33.96,37.4-3.27,113.5-2.84,151.29.03,18.41,1.4,27.77,7.03,25.54,25.09-.66,5.32-5.79,13.87-11.22,15.92-10.84,4.1-49.23-.28-64.39,1.04Z"/>
        <g>
          <path class="cls-2" d="M1551.98,490.3c-7.98-.56-13.82-2.7-17.5-6.44-3.69-3.74-5.52-7.68-5.52-11.84,0-2.21.76-4.84,2.31-7.89l-.46.83v-174.43c-.94.28-1.64.35-2.11.21-.48-.13-1.18-.21-2.11-.21-6.58,0-11.91-1.59-15.98-4.78-4.07-3.18-6.11-7.13-6.11-11.84,0-6.09,3.76-11.9,11.31-17.44,7.54-5.54,16.69-10.31,27.47-14.33,10.77-4.01,21.93-7.2,33.47-9.55,11.54-2.35,21.31-3.53,29.31-3.53,14.46,0,27.47,2.08,39.01,6.23,11.54,4.15,21.39,9.55,29.54,16.2,8.15,6.65,14.38,13.99,18.69,22.01,4.31,8.03,6.46,15.78,6.46,23.26,0,9.7-3.08,19.45-9.23,29.28-6.16,9.83-14.16,18.34-24,25.54,14.77,7.2,25.77,16.06,33,26.58,7.23,10.53,10.85,21.46,10.85,32.81,0,7.48-1.62,14.95-4.84,22.43-3.22,7.48-7.67,14.4-13.35,20.77-5.68,6.37-12.36,12.04-20.03,17.03-7.67,4.98-15.8,8.87-24.4,11.63-10.75,3.05-22.18,5.13-34.3,6.23-12.12,1.1-24.17,1.66-36.14,1.66h-12.44c-3.99,0-8.14-.14-12.43-.41h-.46ZM1575.58,335.8c4.31,0,8.46.07,12.46.21,3.99.14,8.15.35,12.46.62,3.99-.27,9.07-1.31,15.23-3.11,6.15-1.8,12.07-4.22,17.77-7.27,5.69-3.04,10.54-6.78,14.54-11.21,4-4.43,6-9.55,6-15.37s-1.54-10.8-4.62-14.95c-3.08-4.15-7.08-7.54-12-10.18-4.93-2.63-10.31-4.63-16.16-6.02-5.85-1.38-11.7-2.08-17.54-2.08-9.85,0-19.24,1.39-28.16,4.15v65.21ZM1649.44,386.89c-6.77-3.87-14.01-6.85-21.69-8.93-7.7-2.08-15.85-3.53-24.47-4.36-4.31.56-8.77,1.04-13.39,1.45-4.62.41-9.39.62-14.31.62v78.49c6.76,0,15.23-.34,25.39-1.04,10.16-.69,19.92-2.42,29.31-5.19,9.38-2.76,17.46-6.85,24.23-12.25,6.77-5.4,10.16-12.8,10.16-22.22,0-5.54-1.23-10.59-3.69-15.16-2.47-4.57-6.31-8.37-11.54-11.42Z"/>
          <path class="cls-2" d="M1899.16,447.27c5.18-.79,9.79-.7,13.81.28,4.02.98,7.29,2.53,9.82,4.66,2.52,2.13,4.34,4.63,5.45,7.5,1.1,2.87,1.34,5.8.71,8.79-.64,2.99-2.33,5.73-5.05,8.22-2.73,2.49-6.62,4.56-11.67,6.23-14.15,4.6-29.06,8.01-44.73,10.23-15.68,2.22-30.92,2.05-45.72-.51-8.77-1.52-17.43-4.22-26-8.1-8.57-3.88-16.26-8.95-23.07-15.2-10.89-10.62-18.42-23.42-22.58-38.38-4.17-14.96-4.71-29.64-1.63-44.06,3.02-14.13,9.03-27.2,18.01-39.18,8.98-11.98,21.15-20.87,36.49-26.67,12.33-4.91,25.28-8.31,38.85-10.19,13.56-1.88,27.15-1.65,40.74.71,7.25,1.26,14.2,3.17,20.87,5.73,6.35,2.51,12.04,5.96,17.06,10.35,5.01,4.4,9.12,9.34,12.34,14.82,3.21,5.49,5.41,11.3,6.62,17.43,1.19,6.13,1.19,12.05-.04,17.76-.81,3.81-2.05,7.4-3.71,10.78-1.66,3.38-4.05,6.49-7.17,9.33-5.93,5.74-13.33,10.32-22.2,13.71-8.88,3.4-18.38,6.06-28.5,7.97-10.13,1.92-20.43,3.23-30.93,3.95-10.5.72-20.33,1.28-29.5,1.66-9.84.56-16.1.88-18.78.98-2.69.1-4.33.1-4.93,0,2.54,8.62,7.25,15.92,14.12,21.9,6.86,5.99,16.13,9.56,27.79,10.73,9.78,1.13,20.37.35,31.76-2.33,11.38-2.68,21.98-5.71,31.79-9.09ZM1833.28,350.86c-10.96,2.9-19.69,7.8-26.18,14.71-6.49,6.91-11.06,15.08-13.7,24.49.96-.11,2.64-.24,5.02-.4,2.38-.15,5.97-.45,10.77-.89,4.79-.44,11.65-1.01,20.58-1.72,3.19-.29,7.97-.66,14.34-1.11,6.36-.45,12.86-1.16,19.49-2.12,6.63-.97,12.88-2.35,18.75-4.16,5.86-1.8,10.06-4.18,12.57-7.13,2.29-7.78,1.49-13.55-2.4-17.33-3.89-3.77-9.01-6.21-15.36-7.31-6.96-1.2-14.6-1.33-22.95-.38-8.36.95-15.33,2.07-20.93,3.36Z"/>
          <path class="cls-2" d="M2142.89,474.47c-.31,6.94-2.85,12.08-7.62,15.41-4.77,3.32-9.77,4.99-15,4.99-5.54,0-10.54-1.53-15-4.57-4.46-3.04-7.15-7.75-8.08-14.12v-10.18c0-3.74-.08-8.72-.23-14.95-.16-6.23-.23-14.26-.23-24.09v-38.42c0-3.59.15-8.16.46-13.71.3-5.54,0-11.01-.93-16.4-.93-5.4-2.71-10.03-5.34-13.91-2.63-3.88-6.74-5.81-12.3-5.81-9.29,0-18.34,2.35-27.16,7.06-8.83,4.71-16.8,11.63-23.92,20.77-2.48,3.32-4.41,6.44-5.8,9.34-1.39,2.91-2.4,7.13-3.02,12.67v41.74c0,13.71.15,27.62.46,41.74-.3,6.92-2.74,12.04-7.31,15.37-4.57,3.32-9.59,4.98-15.07,4.98-5.18,0-9.98-1.52-14.4-4.57s-7.08-7.76-7.99-14.13v-74.85c0-12.2-.08-24.47-.23-36.8-.16-12.34-.23-25.16-.23-38.46,1.52-6.09,4.34-10.53,8.45-13.3,4.11-2.76,8.75-4.15,13.93-4.15,4.26,0,8.52,1.18,12.79,3.53,4.26,2.36,7.16,5.89,8.68,10.59,8.96-5.6,18.53-10.01,28.73-13.23,10.19-3.22,20.69-4.83,31.51-4.83,11.73,0,22.93,2.5,33.59,7.5,10.65,5,19.22,12.62,25.71,22.89,3.09,5,5.1,10.27,6.02,15.82.92,5.55,1.38,11.23,1.38,17.06s-.31,11.59-.92,17.27c-.62,5.69-.92,11.03-.92,16.02v75.75Z"/>
          <path class="cls-2" d="M2312.36,435.37c2.02-2.55,4.47-4.47,7.35-5.74,2.88-1.28,5.84-2.15,8.88-2.6,6.07-.92,11.39.03,15.98,2.85,4.58,2.82,7.31,6.55,8.17,11.19.87,4.65-.52,9.76-4.15,15.37-6.92,9.75-15.61,17.52-26.07,23.31-10.47,5.79-21.77,9.61-33.9,11.44-7.9,1.19-15.88,1.42-23.98.68-8.09-.74-15.9-2.56-23.42-5.49-7.51-2.92-14.51-6.84-20.99-11.75-6.47-4.91-11.92-10.94-16.35-18.13l.08.41c-10.42-14.39-16.38-29.74-17.86-46.05-1.24-11.58-.61-23.51,1.89-35.79,2.49-12.29,6.9-23.81,13.23-34.57,6.33-10.76,14.62-20,24.86-27.71,10.25-7.71,22.2-12.6,35.86-14.66,4.25-.64,8.38-1.06,12.41-1.25,4.02-.19,8.28.07,12.78.77,9,1.42,17.25,3.37,24.73,5.84,7.48,2.47,15.29,6.3,23.43,11.45,3.89,4.14,6.14,7.83,6.75,11.09.66,3.55.34,6.83-.97,9.83-1.31,3.01-3.43,5.43-6.36,7.28-2.93,1.85-6.61,3.04-11.04,3.56-4.43.53-9.27.07-14.53-1.38-7.49-5.04-14.44-8.41-20.84-10.12-6.4-1.7-12.33-2.14-17.8-1.31-7.28,1.1-13.74,4.12-19.38,9.04-5.63,4.92-10.12,11-13.44,18.24-3.33,7.24-5.59,15.16-6.8,23.77-1.2,8.61-1.01,17.14.57,25.6.87,4.65,2.11,9.23,3.74,13.75,1.62,4.53,3.88,8.68,6.77,12.45,5.47,7.6,11.75,12.82,18.84,15.68,7.09,2.86,14.12,3.76,21.1,2.71,5.16-.78,10.39-2.84,15.7-6.16,5.3-3.33,10.08-7.84,14.32-13.53l.45-.07Z"/>
          <path class="cls-2" d="M2441.07,474.1c-.62,6.64-3.08,11.63-7.39,14.95-4.31,3.32-9.39,4.98-15.23,4.98-5.24,0-10.15-1.52-14.77-4.57-4.62-3.04-7.38-7.61-8.31-13.71v-228.01c1.54-5.54,4.31-9.76,8.31-12.67,4-2.91,8.61-4.36,13.85-4.36s9.92,1.32,14.08,3.95c4.15,2.64,7.31,6.58,9.46,11.84l-.12,89.29c15.04-9.41,28.62-15.5,40.74-18.27,12.13-2.76,24.63-2.21,37.53,1.66,9.51,2.49,17.65,6.58,24.4,12.25,6.75,5.68,12.35,12.19,16.81,19.52,4.45,7.34,7.83,15.16,10.13,23.47,2.3,8.31,3.61,16.34,3.92,24.09v52.95c0,5.68.07,10.32.23,13.91.15,3.6.23,7.06.23,10.38-.61,6.65-2.97,11.63-7.08,14.95-4.11,3.32-9.07,4.98-14.85,4.98-5.18,0-10.05-1.52-14.62-4.57-4.57-3.04-7.31-7.75-8.22-14.12v-38.42c0-12.6-.16-25.54-.46-38.83-.62-8.86-2.7-17.44-6.23-25.75-3.54-8.31-9.31-14.81-17.31-19.52-6.16-1.1-11.93-.83-17.31.83-5.39,1.66-10.7,4.36-15.93,8.1-5.24,3.74-10.46,8.38-15.69,13.91-5.24,5.54-10.62,11.36-16.16,17.44v79.33Z"/>
        </g>
      </g>
    </g>
  </g>
</svg>