<?xml version="1.0" encoding="utf-8"?>
<!-- Generator: Adobe Illustrator 18.0.0, SVG Export Plug-In . SVG Version: 6.00 Build 0)  -->
<!DOCTYPE svg PUBLIC "-//W3C//DTD SVG 1.1//EN" "http://www.w3.org/Graphics/SVG/1.1/DTD/svg11.dtd">
<svg version="1.1" id="Layer_1" xmlns="http://www.w3.org/2000/svg" xmlns:xlink="http://www.w3.org/1999/xlink" x="0px" y="0px"
	 viewBox="0 0 61.307 41.641" width="383.702348358" height="260.618681194" enable-background="new 0 0 61.307 41.641" xml:space="preserve">
<rect x="9.431" y="40.927" fill-rule="evenodd" clip-rule="evenodd" fill="#EC2327" width="42.263" height="0.714"/>
<rect x="9.431" y="37.725" fill-rule="evenodd" clip-rule="evenodd" fill="#EC2327" width="42.263" height="2.486"/>
<path fill-rule="evenodd" clip-rule="evenodd" fill="#EC2327" d="M0,15.328C0.302,8.588,6.767,4.969,12.522,2.805
	c-1.43,3.596-2.758,7.638-2.3,12.243c0.428,4.302,4.274,9.296,4.855,10.204c-1.268,0.002-6.039-0.077-5.98-0.006
	c3.015,3.655,7.866,8.224,10.996,11.482c-1.448,0-3.311,0-4.759,0C9.029,31.287,0,23.064,0,15.328L0,15.328z M6.9,21.935
	c1.021,0,2.044,0,3.066,0C7.198,18.125,7.247,9.69,9.2,5.866C4.746,8.386,3.343,17.559,6.9,21.935L6.9,21.935z"/>
<path fill-rule="evenodd" clip-rule="evenodd" fill="#EC2327" d="M50.338,32.649c-1.308,1.301-3.224,3.185-4.297,4.104
	c-1.245,0-2.084-0.025-4.647-0.025c3.351-3.239,6.128-5.669,8.413-8.371c2.284-2.703,2.387-3.046,2.612-3.348
	c-0.68,0.009-2.549-0.023-2.549-0.023s-2.559,2.589-3.619,3.581c-1.561,1.461-2.958,2.789-5.008,3.826
	c5.452-6.176,13.556-15.709,8.481-27.294c3.795,3.18,3.92,12.457,1.38,17.091c1.109,0,2.307,0,3.415,0
	c5.49-6.735,2.141-15.921-4.616-18.975c4.988,1.836,11.404,6.114,11.404,12.105C61.307,22.282,54.816,28.195,50.338,32.649z"/>
<path fill="#EC2327" d="M28.875,21.92c0,0-0.021,1.41-0.003,3.145c0.026,2.484-0.462,5.626-1.795,6.239
	c-2.263,1.042-6.288-3.969-7.933-6.483c-2.436-3.725-4.271-7.081-5.296-10.311c1.287,8.356,5.589,15.026,10.163,19.089
	c1.02,0.882,2.543,1.581,3.578,1.529c1.936-0.092,3.167-2.293,3.167-2.293V21.911C30.016,21.916,28.875,21.92,28.875,21.92z"/>
<path fill="#EC2327" d="M32.151,21.92c0,0,0.02,1.41,0.003,3.145c-0.026,2.484,0.461,5.626,1.794,6.239
	c2.264,1.042,6.288-3.969,7.934-6.483c2.435-3.725,4.27-7.081,5.296-10.311c-1.286,8.356-5.588,15.026-10.163,19.089
	c-1.019,0.882-2.544,1.581-3.578,1.529c-1.936-0.092-3.167-2.293-3.167-2.293V21.911C31.011,21.916,32.151,21.92,32.151,21.92z"/>
<path fill-rule="evenodd" clip-rule="evenodd" fill="#EC2327" d="M39.772,0c2.843,0,5.706,3.407,7.246,6.121
	c-2.106-2.625-9.143-5.495-10.223,0c1.091-0.011,2.326-0.033,3.298-0.011c0,3.086-0.034,6.51-0.034,9.416c-1.456,0-3.639,0-4.285,0
	c0,1.537,0.014,3.748,0.014,5.03c-3.316,0.018-7.604,0.007-10.491,0.007c0-1.615,0-3.389,0-5.004c-1.448,0-2.895,0-4.343,0
	c0-3.146,0-6.292,0-9.438c0.994,0,2.489,0.003,3.267,0.003c-0.006-0.121-0.188-0.567-0.259-0.709
	c-2.359-4.762-8.044-0.999-9.909,1.217c1.367-2.166,2.711-4.354,4.886-5.713C19.541,0.544,20.618,0,21.975,0
	c1.471,0,3.083,0.639,4.246,1.718c1.799,1.667,2.847,4.778,2.622,7.975c-1.363,0-2.948,0-4.311,0c0,1.105,0,2.21,0,3.314
	c1.447,0,2.896,0,4.343,0c0,1.361,0,2.772,0,4.131c0.574,0,2.228-0.008,3.285-0.008c0-1.377,0-3.083,0-4.123
	c1.361,0,3.017,0,4.379,0c0-1.104,0-2.209,0-3.314c-1.405,0-3.35-0.006-4.348-0.006c-0.268-3.218,0.883-5.971,2.4-7.586
	C35.816,0.801,36.928,0,39.772,0z"/>
</svg>
